<?xml version="1.0" standalone="no"?>
<!DOCTYPE svg PUBLIC "-//W3C//DTD SVG 20010904//EN"
 "http://www.w3.org/TR/2001/REC-SVG-20010904/DTD/svg10.dtd">
<svg version="1.0" xmlns="http://www.w3.org/2000/svg"
 width="718.000000pt" height="980.000000pt" viewBox="0 0 718.000000 980.000000"
 preserveAspectRatio="xMidYMid meet">
<metadata>
Created by potrace 1.15, written by Peter Selinger 2001-2017
</metadata>
<g transform="translate(0.000000,980.000000) scale(0.100000,-0.100000)"
fill="#000000" stroke="none">
<path d="M0 8189 c0 -1155 3 -1608 11 -1603 7 4 8 27 4 65 -5 43 -4 59 5 59 8
0 10 12 5 40 -5 27 -3 40 5 40 7 0 9 12 4 35 -4 23 -2 35 5 35 7 0 9 9 5 25
-4 16 -2 25 5 25 7 0 9 9 5 25 -4 16 -2 25 6 25 7 0 9 8 5 20 -4 12 -2 20 5
20 7 0 9 8 5 20 -3 11 -2 20 3 20 6 0 8 9 5 20 -3 11 -1 20 5 20 6 0 8 10 4
22 -4 15 -2 19 7 13 10 -5 11 -2 6 14 -4 12 -2 21 4 21 6 0 8 7 5 15 -4 8 -1
15 6 15 7 0 9 8 5 20 -4 11 -2 20 4 20 6 0 8 7 5 15 -4 8 -1 15 6 15 7 0 10 7
6 15 -3 8 -1 15 5 15 6 0 8 9 4 21 -5 16 -4 19 5 14 9 -5 10 -2 5 14 -4 12 -2
21 4 21 6 0 7 7 4 17 -5 11 -3 14 6 8 10 -6 11 -2 6 15 -5 17 -4 21 6 15 9 -6
11 -3 6 8 -3 10 -2 17 3 17 5 0 7 7 4 15 -4 8 -1 15 5 15 6 0 8 7 5 15 -4 8
-1 15 6 15 6 0 8 5 5 10 -3 6 -2 10 4 10 6 0 8 7 5 15 -4 8 -1 15 5 15 6 0 8
7 4 17 -4 11 -3 14 5 9 8 -5 10 -2 6 8 -3 9 -1 16 6 16 6 0 8 5 5 10 -3 6 -2
10 4 10 6 0 7 7 4 17 -4 11 -3 14 5 9 8 -5 10 -2 6 8 -3 9 -1 16 6 16 6 0 8 5
5 10 -3 6 -1 10 5 10 6 0 8 5 5 10 -3 6 -1 10 5 10 6 0 9 4 6 9 -8 13 4 42 15
35 5 -3 6 3 2 12 -4 12 -3 15 5 10 8 -5 10 -2 6 8 -3 9 -1 16 6 16 6 0 8 5 5
10 -3 6 -1 10 6 10 7 0 9 3 6 7 -4 3 1 12 11 20 9 8 11 12 4 8 -10 -5 -10 -1
-1 19 7 14 16 23 20 20 5 -3 6 2 3 10 -3 8 4 24 15 35 12 12 18 21 14 21 -4 0
2 7 13 16 10 8 13 12 6 9 -11 -6 -12 -3 -3 14 7 11 17 21 23 21 6 0 8 3 5 7
-4 3 1 12 11 20 11 10 12 12 2 8 -8 -4 -6 1 4 9 11 9 16 16 11 16 -5 0 0 7 11
16 10 8 12 13 4 9 -8 -4 -6 1 4 9 11 9 16 16 12 16 -4 0 1 13 10 29 10 17 21
28 26 25 5 -3 8 -2 7 3 -4 21 2 34 13 27 7 -4 8 -3 4 5 -5 7 6 24 26 43 18 17
26 28 18 24 -8 -4 -4 2 10 14 14 12 18 19 10 15 -8 -3 -1 6 15 20 17 15 23 24
15 20 -8 -3 -1 6 15 20 17 15 23 24 15 20 -8 -4 -1 6 15 22 17 15 24 24 15 19
-8 -4 3 9 25 29 22 21 31 32 20 25 -11 -7 0 7 25 31 25 24 39 40 30 34 -9 -5
13 18 49 52 37 34 62 62 56 63 -5 0 26 36 69 79 44 44 83 79 88 78 5 -1 39 30
75 68 36 39 60 61 53 50 -7 -11 6 0 29 25 24 25 38 36 31 25 -7 -11 4 -2 25
20 20 22 32 31 25 20 -7 -11 2 -4 21 16 19 20 43 42 53 50 17 12 19 12 12 -1
-5 -8 4 -1 19 15 14 17 23 23 19 15 -4 -8 7 0 24 18 19 20 36 31 43 26 7 -4 9
-3 6 2 -3 6 3 16 15 23 16 10 19 10 12 -1 -4 -7 7 2 25 20 30 29 43 36 56 30
2 -2 11 6 20 17 9 11 13 13 9 5 -4 -8 4 -3 19 13 27 28 43 36 31 15 -4 -7 4
-1 19 15 27 28 43 36 32 15 -4 -7 0 -5 8 4 8 10 17 15 20 11 4 -3 7 -1 7 6 0
7 4 10 9 7 5 -3 12 1 15 10 4 9 13 14 22 10 8 -3 12 -2 9 4 -6 9 8 14 28 11 4
0 7 4 7 10 0 5 5 7 10 4 6 -3 10 -1 10 5 0 6 5 8 10 5 5 -3 10 -1 10 5 0 6 5
8 10 5 6 -3 10 -1 10 5 0 6 5 8 10 5 6 -3 10 -1 10 5 0 6 5 8 10 5 5 -3 10 -1
10 5 0 6 5 8 10 5 6 -3 10 -1 10 5 0 6 5 8 10 5 5 -3 10 -1 10 5 0 7 7 9 16 6
8 -3 13 -2 10 3 -7 11 22 23 35 15 5 -3 9 0 9 6 0 6 5 8 10 5 6 -3 10 -2 10 4
0 6 7 7 17 4 12 -5 14 -3 8 7 -6 10 -4 12 8 7 10 -3 17 -2 17 4 0 6 5 7 10 4
6 -3 10 -2 10 4 0 6 7 7 17 4 12 -5 14 -3 8 7 -6 10 -4 12 8 7 10 -4 17 -2 17
4 0 6 7 9 15 5 8 -3 15 -1 15 5 0 6 4 7 10 4 5 -3 10 -1 10 5 0 7 7 10 15 6 8
-3 15 -1 15 4 0 5 7 7 15 4 8 -4 15 -1 15 5 0 6 7 8 17 4 12 -5 14 -3 8 7 -6
10 -4 12 8 7 10 -4 17 -2 17 4 0 6 7 9 15 5 8 -3 15 -1 15 5 0 6 9 8 21 4 16
-5 19 -4 14 5 -5 9 -2 10 14 5 12 -4 21 -2 21 4 0 6 7 8 15 5 8 -4 15 -1 15 6
0 7 7 10 15 6 8 -3 15 -1 15 5 0 6 9 8 20 4 12 -4 20 -2 20 5 0 7 7 10 15 6 8
-3 15 -1 15 5 0 6 9 8 20 4 12 -4 20 -2 20 5 0 7 8 10 20 7 11 -3 20 -1 20 5
0 6 9 8 20 5 11 -3 20 -1 20 5 0 6 11 7 25 4 16 -4 25 -2 25 5 0 7 9 9 25 5
15 -4 25 -2 25 4 0 6 10 8 25 4 16 -4 25 -2 25 6 0 8 9 10 25 6 15 -4 25 -2
25 5 0 7 11 8 30 4 20 -4 30 -3 30 5 0 8 10 9 30 5 20 -4 30 -3 30 5 0 9 11
10 35 6 24 -5 35 -3 35 5 0 8 14 9 44 5 27 -4 47 -3 51 4 4 7 -490 10 -1624
10 l-1631 0 0 -1611z"/>
<path d="M3806 9789 c4 -7 27 -8 65 -4 43 5 59 4 59 -5 0 -9 13 -10 44 -6 27
4 47 3 51 -4 4 -6 22 -8 46 -4 27 5 39 3 39 -5 0 -8 11 -10 35 -5 23 4 35 2
35 -5 0 -6 11 -8 30 -4 19 3 30 1 30 -6 0 -7 9 -9 25 -5 16 4 25 2 25 -6 0 -8
10 -9 30 -5 20 4 30 3 30 -5 0 -7 8 -9 20 -5 12 4 20 2 20 -5 0 -6 10 -8 25
-4 16 4 25 2 25 -6 0 -7 8 -9 20 -5 12 4 20 2 20 -5 0 -7 8 -9 20 -5 11 4 20
2 20 -4 0 -6 7 -8 15 -5 8 4 15 1 15 -6 0 -7 8 -9 20 -5 11 4 20 2 20 -4 0 -6
7 -8 15 -5 8 4 15 1 15 -6 0 -7 8 -9 21 -5 16 5 19 4 14 -5 -5 -9 -2 -10 14
-5 12 4 21 2 21 -4 0 -6 7 -8 15 -5 8 4 15 1 15 -5 0 -6 7 -8 15 -5 8 4 15 1
15 -5 0 -6 7 -8 15 -5 8 4 15 1 15 -5 0 -6 7 -8 17 -4 12 5 14 3 8 -7 -6 -10
-4 -12 8 -7 10 3 17 2 17 -3 0 -5 7 -7 15 -4 8 4 15 1 15 -5 0 -6 7 -8 17 -4
12 5 14 3 8 -7 -6 -10 -4 -12 8 -7 10 3 17 2 17 -3 0 -5 7 -6 17 -3 12 5 14 3
8 -7 -6 -10 -4 -12 8 -7 10 3 17 2 17 -3 0 -5 7 -6 17 -3 11 4 14 3 9 -5 -5
-8 -2 -10 8 -6 9 3 16 1 16 -6 0 -6 5 -8 10 -5 6 3 10 1 10 -5 0 -6 5 -8 10
-5 6 3 10 2 10 -4 0 -6 7 -7 17 -4 11 4 14 3 9 -5 -5 -8 -2 -10 8 -6 9 3 16 1
16 -6 0 -6 5 -8 10 -5 6 3 10 1 10 -5 0 -6 5 -8 10 -5 6 3 10 1 10 -5 0 -6 5
-8 10 -5 6 3 10 1 10 -5 0 -6 5 -8 10 -5 6 3 10 1 10 -5 0 -6 5 -8 10 -5 6 3
10 1 10 -5 0 -6 5 -8 10 -5 6 3 10 1 10 -5 0 -6 5 -8 10 -5 6 3 10 1 10 -4 0
-6 3 -10 8 -10 19 3 33 -2 27 -11 -3 -5 0 -7 9 -4 8 3 24 -4 35 -15 12 -12 21
-18 21 -14 0 4 7 -2 16 -13 8 -10 12 -13 9 -6 -6 11 -3 12 14 3 11 -7 21 -17
21 -23 0 -6 3 -8 7 -5 3 4 12 -1 20 -11 10 -11 12 -12 8 -2 -4 8 3 4 15 -10
12 -14 19 -19 15 -12 -11 21 5 13 32 -15 15 -16 23 -21 19 -13 -4 8 2 4 14
-10 12 -14 19 -18 15 -10 -4 8 3 4 15 -10 12 -14 19 -18 15 -10 -4 8 3 4 15
-10 12 -14 19 -18 15 -10 -4 8 3 4 15 -10 12 -14 18 -18 14 -10 -7 13 -5 13
12 1 10 -8 30 -26 43 -40 13 -14 20 -19 16 -11 -4 8 6 1 22 -15 15 -17 26 -26
23 -20 -3 6 6 -1 20 -15 14 -14 21 -19 16 -10 -4 8 9 -3 29 -25 21 -22 32 -31
25 -20 -7 11 5 2 26 -20 22 -23 35 -34 29 -25 -5 9 11 -6 37 -34 26 -28 51
-51 56 -51 10 0 246 -237 247 -248 0 -5 25 -32 56 -60 30 -29 48 -47 39 -42
-9 6 2 -7 25 -29 22 -21 31 -33 20 -26 -11 7 -2 -4 20 -25 22 -20 33 -33 25
-29 -9 5 -2 -4 15 -19 16 -16 23 -26 15 -22 -8 4 -1 -5 15 -20 17 -14 23 -23
15 -20 -8 4 -3 -3 11 -16 14 -13 32 -33 40 -43 12 -17 12 -19 -1 -12 -8 4 -4
-2 10 -14 14 -12 18 -19 10 -15 -8 4 -4 -3 10 -15 14 -12 18 -19 10 -15 -8 4
-4 -3 10 -15 14 -12 18 -18 10 -14 -8 4 0 -7 18 -25 29 -30 36 -43 30 -56 -2
-2 5 -10 14 -17 9 -7 18 -19 20 -27 2 -8 11 -23 21 -33 10 -10 15 -23 12 -28
-4 -6 -1 -10 5 -10 6 0 9 -4 6 -9 -3 -5 1 -12 10 -15 9 -4 14 -13 10 -22 -3
-8 -2 -12 4 -9 9 6 14 -8 11 -27 0 -5 4 -8 10 -8 5 0 7 -4 4 -10 -3 -5 -1 -10
5 -10 6 0 8 -4 5 -10 -3 -5 -1 -10 5 -10 6 0 8 -4 5 -10 -3 -5 -1 -10 5 -10 6
0 8 -4 5 -10 -3 -5 -1 -10 5 -10 6 0 8 -4 5 -10 -3 -5 -1 -10 5 -10 6 0 8 -4
5 -10 -3 -5 -1 -10 5 -10 6 0 8 -4 5 -10 -3 -5 -1 -10 5 -10 6 0 8 -4 5 -10
-3 -5 -2 -10 4 -10 6 0 7 -7 4 -17 -4 -10 -2 -14 4 -10 12 7 36 -40 28 -54 -4
-5 -1 -9 5 -9 6 0 8 -4 5 -10 -3 -5 -1 -10 5 -10 7 0 9 -7 6 -16 -4 -10 -2
-13 6 -8 8 5 9 2 5 -9 -3 -10 -2 -17 3 -17 5 0 6 -7 3 -17 -5 -12 -3 -14 7 -8
10 6 12 4 7 -8 -4 -10 -2 -17 4 -17 6 0 8 -7 5 -16 -4 -10 -2 -13 6 -8 8 5 9
2 5 -9 -4 -10 -2 -17 4 -17 6 0 9 -7 5 -15 -3 -8 -1 -15 4 -15 5 0 6 -7 3 -17
-5 -11 -3 -14 6 -8 10 6 11 2 6 -15 -5 -16 -4 -20 5 -15 9 5 10 1 5 -15 -5
-17 -4 -21 6 -15 9 6 11 3 6 -8 -4 -10 -2 -17 4 -17 6 0 9 -7 5 -15 -3 -8 -1
-15 5 -15 6 0 8 -9 4 -20 -4 -12 -2 -20 5 -20 7 0 10 -7 6 -15 -3 -8 -1 -15 5
-15 6 0 9 -7 5 -15 -3 -8 -1 -15 5 -15 6 0 8 -9 4 -20 -4 -12 -2 -20 5 -20 7
0 9 -8 5 -20 -4 -12 -2 -20 5 -20 7 0 9 -8 5 -21 -5 -16 -4 -19 6 -14 9 6 11
2 7 -13 -4 -12 -2 -22 4 -22 6 0 7 -11 4 -25 -4 -15 -2 -25 4 -25 7 0 9 -8 5
-20 -4 -12 -2 -20 5 -20 8 0 10 -9 6 -25 -4 -16 -2 -25 5 -25 7 0 9 -9 5 -25
-4 -15 -2 -25 5 -25 7 0 8 -11 4 -30 -4 -20 -3 -30 5 -30 8 0 9 -10 5 -29 -4
-17 -2 -32 5 -36 6 -4 8 -20 4 -41 -4 -24 -3 -34 6 -34 9 0 10 -12 6 -45 -5
-31 -4 -45 4 -45 9 0 10 -17 5 -60 -5 -41 -4 -60 4 -60 8 0 11 465 11 1675 l0
1675 -1691 0 c-1213 0 -1688 -3 -1683 -11z"/>
<path d="M3200 9026 c0 -5 -13 -6 -30 -2 -19 3 -30 1 -30 -5 0 -7 -11 -9 -30
-5 -19 3 -30 1 -30 -5 0 -7 -10 -9 -25 -5 -16 4 -25 2 -25 -5 0 -7 -9 -9 -25
-5 -16 4 -25 2 -25 -5 0 -7 -9 -9 -25 -5 -15 4 -25 2 -25 -4 0 -7 -8 -9 -20
-5 -12 4 -20 2 -20 -5 0 -7 -8 -9 -20 -5 -12 4 -20 2 -20 -5 0 -7 -8 -10 -20
-7 -11 3 -20 1 -20 -5 0 -5 -10 -6 -21 -3 -16 5 -19 4 -14 -6 6 -9 2 -11 -13
-7 -12 4 -22 2 -22 -4 0 -5 -10 -6 -21 -3 -16 5 -19 4 -14 -5 5 -9 1 -10 -15
-5 -16 5 -20 4 -15 -5 5 -9 2 -10 -14 -5 -12 4 -21 2 -21 -4 0 -6 -7 -8 -15
-5 -8 4 -15 1 -15 -5 0 -6 -7 -8 -17 -4 -12 5 -14 3 -8 -7 6 -10 4 -12 -8 -7
-10 4 -17 2 -17 -4 0 -6 -7 -9 -15 -5 -8 3 -15 1 -15 -5 0 -6 -7 -8 -16 -5
-10 4 -13 2 -8 -6 5 -8 2 -9 -9 -5 -10 3 -17 2 -17 -3 0 -5 -7 -6 -17 -3 -12
5 -14 3 -8 -7 6 -10 4 -12 -8 -7 -10 3 -17 2 -17 -4 0 -6 -4 -7 -10 -4 -5 3
-10 1 -10 -5 0 -7 -7 -9 -16 -6 -10 4 -13 2 -8 -6 5 -8 2 -9 -10 -5 -9 4 -15
3 -12 -2 7 -11 -22 -23 -35 -15 -5 3 -9 0 -9 -6 0 -6 -4 -8 -10 -5 -5 3 -10 1
-10 -5 0 -6 -4 -8 -10 -5 -5 3 -10 1 -10 -6 0 -7 -3 -10 -6 -6 -3 3 -15 -4
-26 -15 -11 -11 -26 -17 -34 -14 -9 3 -12 1 -9 -4 6 -9 -8 -14 -27 -11 -5 0
-8 -4 -8 -11 0 -6 -3 -8 -7 -5 -3 4 -12 -1 -20 -11 -10 -11 -12 -12 -8 -2 4 8
-1 6 -9 -4 -9 -11 -16 -16 -16 -11 0 5 -7 0 -16 -11 -8 -10 -13 -12 -9 -4 4 8
-3 4 -15 -10 -12 -14 -18 -18 -14 -10 4 8 -5 2 -19 -13 -15 -16 -32 -25 -39
-21 -6 4 -8 3 -5 -2 3 -6 -3 -16 -15 -23 -16 -10 -19 -10 -13 1 4 7 -3 2 -15
-12 -12 -14 -19 -18 -15 -10 4 8 -5 2 -20 -15 -14 -16 -23 -23 -19 -15 3 8 -8
-1 -26 -20 -18 -19 -27 -26 -20 -15 7 11 -2 4 -21 -16 -19 -19 -29 -28 -24
-19 6 9 -8 -3 -30 -25 -22 -23 -35 -34 -30 -25 6 9 -4 0 -22 -19 -18 -20 -37
-36 -42 -36 -14 0 -231 -217 -225 -226 2 -4 -26 -38 -63 -76 -37 -37 -58 -62
-47 -54 10 7 1 -4 -21 -24 -22 -21 -31 -32 -20 -24 20 14 20 14 0 -11 -10 -14
-30 -36 -45 -49 -14 -13 -18 -20 -10 -16 8 3 2 -6 -15 -20 -16 -15 -23 -24
-15 -20 8 4 4 -3 -10 -15 -14 -12 -18 -19 -10 -15 8 4 4 -3 -10 -15 -14 -12
-18 -19 -10 -15 8 4 4 -3 -10 -15 -14 -12 -18 -19 -10 -15 13 6 13 5 0 -7 -8
-7 -16 -20 -18 -28 -2 -8 -10 -20 -18 -27 -9 -6 -15 -14 -15 -17 3 -20 0 -26
-9 -21 -6 3 -7 -1 -4 -9 4 -9 -1 -18 -10 -22 -9 -3 -13 -10 -10 -15 3 -5 0 -9
-5 -9 -6 0 -10 -3 -10 -7 3 -20 -2 -34 -11 -28 -6 4 -7 -1 -3 -11 4 -12 3 -15
-5 -10 -8 5 -10 1 -5 -10 4 -12 3 -15 -5 -10 -8 5 -10 1 -5 -10 5 -13 3 -15
-7 -9 -8 5 -11 4 -7 -3 10 -15 -3 -43 -16 -35 -6 4 -8 0 -4 -10 3 -10 2 -17
-4 -17 -6 0 -7 -4 -4 -10 3 -5 1 -10 -5 -10 -6 0 -8 -4 -5 -10 3 -5 2 -10 -4
-10 -6 0 -7 -7 -4 -17 4 -11 3 -14 -5 -9 -8 5 -10 2 -6 -8 3 -9 1 -16 -6 -16
-6 0 -8 -4 -5 -10 3 -5 2 -10 -4 -10 -6 0 -8 -7 -5 -15 4 -8 1 -15 -6 -15 -6
0 -8 -4 -5 -10 3 -5 2 -10 -4 -10 -6 0 -8 -7 -5 -15 4 -8 1 -15 -5 -15 -6 0
-8 -7 -4 -17 5 -11 3 -14 -6 -8 -10 6 -11 2 -6 -15 5 -16 4 -20 -5 -15 -9 5
-10 1 -5 -15 5 -17 4 -21 -6 -15 -9 6 -11 3 -6 -8 3 -10 2 -17 -4 -17 -6 0 -8
-9 -4 -21 5 -16 4 -19 -5 -14 -9 5 -10 2 -5 -14 4 -12 2 -21 -4 -21 -6 0 -8
-7 -5 -15 4 -8 2 -15 -4 -15 -6 0 -8 -9 -5 -20 3 -11 0 -20 -6 -20 -5 0 -8 -7
-5 -15 4 -8 1 -15 -6 -15 -7 0 -9 -8 -5 -20 4 -12 2 -20 -5 -20 -7 0 -9 -8 -5
-20 4 -12 2 -20 -5 -20 -6 0 -8 -10 -4 -26 5 -20 4 -25 -5 -20 -8 6 -10 0 -5
-18 4 -16 2 -26 -5 -26 -6 0 -8 -11 -4 -30 4 -20 2 -30 -7 -30 -8 0 -10 -11
-5 -39 4 -24 2 -41 -4 -46 -8 -4 -9 -28 -5 -71 4 -36 3 -69 -3 -76 -11 -15
-10 -454 2 -481 4 -10 4 -45 1 -77 -5 -43 -4 -60 5 -60 8 0 10 -12 5 -39 -4
-25 -2 -42 5 -46 6 -4 8 -18 5 -31 -4 -15 -2 -24 5 -24 7 0 9 -9 5 -25 -4 -15
-2 -25 4 -25 7 0 9 -8 5 -20 -4 -12 -2 -20 5 -20 7 0 9 -8 5 -20 -4 -12 -2
-20 5 -20 7 0 9 -8 5 -20 -4 -12 -2 -20 5 -20 7 0 10 -7 6 -15 -3 -8 -1 -15 5
-15 6 0 8 -9 4 -20 -4 -12 -2 -20 5 -20 7 0 10 -7 6 -15 -3 -8 -1 -15 5 -15 6
0 9 -7 5 -15 -3 -8 -1 -15 5 -15 6 0 9 -7 5 -15 -3 -8 -1 -15 5 -15 6 0 9 -7
5 -15 -3 -8 -1 -15 5 -15 6 0 9 -7 5 -15 -3 -8 -1 -15 5 -15 6 0 9 -7 5 -15
-3 -8 -1 -15 5 -15 6 0 8 -7 5 -16 -4 -10 -2 -13 6 -8 8 5 9 2 5 -9 -4 -10 -2
-17 4 -17 6 0 9 -7 5 -15 -3 -8 -1 -15 4 -15 5 0 6 -7 3 -17 -5 -12 -3 -14 7
-8 10 6 12 4 7 -8 -3 -10 -2 -17 4 -17 6 0 7 -4 4 -10 -3 -5 -2 -10 4 -10 6 0
7 -7 4 -17 -5 -12 -3 -14 7 -8 10 6 12 4 7 -8 -3 -10 -2 -17 4 -17 6 0 7 -4 4
-10 -3 -5 -1 -10 5 -10 6 0 8 -4 5 -10 -3 -5 -1 -10 5 -10 6 0 8 -4 5 -10 -3
-5 -1 -10 5 -10 6 0 8 -4 5 -10 -3 -6 -1 -10 5 -10 6 0 8 -4 5 -10 -3 -5 -1
-10 5 -10 6 0 8 -4 5 -10 -3 -5 -1 -10 5 -10 6 0 8 -4 5 -10 -3 -5 -1 -10 5
-10 6 0 8 -4 5 -10 -3 -5 -1 -10 5 -10 6 0 8 -4 5 -10 -3 -5 -1 -10 5 -10 6 0
9 -4 6 -9 -3 -5 1 -12 10 -15 9 -4 14 -13 10 -22 -3 -8 -2 -12 4 -9 9 6 14 -8
11 -27 0 -5 3 -8 9 -8 5 0 14 -10 21 -21 9 -17 8 -20 -3 -14 -7 4 -3 -2 9 -12
12 -10 23 -25 25 -33 2 -8 10 -21 18 -28 13 -12 13 -13 0 -7 -8 4 -4 -3 10
-15 14 -12 18 -19 10 -15 -8 4 -4 -3 10 -15 14 -12 18 -19 10 -15 -8 4 -3 -3
11 -16 14 -13 32 -33 40 -43 12 -17 12 -19 -1 -12 -8 5 -1 -4 15 -19 17 -14
23 -23 15 -19 -8 3 1 -8 20 -26 19 -18 26 -26 15 -19 -11 7 -2 -5 21 -27 22
-21 33 -34 25 -29 -9 6 7 -12 35 -40 28 -27 37 -39 21 -25 -17 14 30 -36 104
-110 74 -74 137 -134 141 -132 4 1 34 -24 65 -55 32 -32 54 -51 48 -42 -5 8 1
3 15 -11 14 -14 21 -19 16 -10 -4 8 6 -1 24 -20 18 -19 29 -28 25 -20 -4 8 3
4 15 -10 12 -14 18 -18 14 -11 -4 9 6 5 24 -8 18 -12 32 -27 32 -32 0 -6 5 -7
10 -4 6 3 13 0 16 -8 2 -7 10 -14 17 -14 18 0 67 -33 67 -46 0 -6 3 -7 7 -4 3
4 12 -1 20 -11 10 -11 12 -12 8 -2 -4 10 -2 9 8 -2 8 -10 17 -15 20 -11 4 3 7
0 7 -7 0 -7 3 -10 7 -7 3 4 12 -1 20 -11 8 -9 11 -11 8 -4 -5 10 1 9 24 -2 17
-9 31 -21 31 -27 0 -6 5 -7 10 -4 6 3 10 1 10 -5 0 -6 5 -8 10 -5 6 3 10 1 10
-5 0 -6 5 -8 10 -5 6 3 10 1 10 -5 0 -6 4 -8 10 -5 6 3 10 1 10 -5 0 -6 5 -8
10 -5 6 3 10 2 10 -4 0 -6 7 -7 17 -4 12 5 14 3 8 -7 -6 -10 -4 -12 8 -7 10 3
17 2 17 -4 0 -6 5 -7 10 -4 6 3 10 1 10 -5 0 -6 4 -8 10 -5 6 3 10 2 10 -4 0
-6 7 -7 17 -4 12 5 14 3 8 -7 -6 -10 -4 -12 8 -7 10 3 17 2 17 -3 0 -5 7 -6
17 -3 11 4 14 3 9 -5 -5 -8 -2 -10 8 -6 9 3 16 1 16 -5 0 -6 7 -8 15 -5 8 4
15 1 15 -5 0 -6 7 -8 17 -4 11 4 14 3 9 -5 -5 -8 -2 -10 8 -6 9 3 16 1 16 -5
0 -6 7 -8 15 -5 8 4 15 1 15 -5 0 -6 7 -8 15 -5 8 4 15 1 15 -5 0 -6 7 -8 15
-5 8 4 15 1 15 -5 0 -6 7 -8 15 -5 8 4 15 1 15 -6 0 -7 8 -9 20 -5 11 4 20 2
20 -4 0 -6 7 -8 15 -5 8 4 15 2 15 -4 0 -6 9 -8 20 -5 11 3 20 1 20 -5 0 -6 9
-8 20 -5 11 3 20 1 20 -5 0 -6 10 -8 22 -4 15 3 19 2 14 -7 -6 -8 -1 -10 18
-5 17 4 26 2 26 -5 0 -7 9 -9 25 -5 16 4 25 2 25 -6 0 -7 8 -9 20 -5 12 4 20
2 20 -5 0 -7 12 -9 35 -4 24 4 35 2 35 -5 0 -8 11 -10 34 -5 19 3 41 2 48 -3
7 -4 45 -9 83 -10 365 -13 411 -13 432 -2 15 8 44 10 87 5 43 -4 67 -3 71 5 5
6 22 8 46 4 28 -5 39 -3 39 5 0 9 10 11 30 7 19 -4 30 -2 30 4 0 7 10 9 25 5
16 -4 25 -2 25 5 0 7 9 9 25 5 15 -4 25 -2 25 4 0 7 8 9 20 5 12 -4 20 -2 20
5 0 7 8 10 20 7 11 -3 20 -1 20 5 0 6 9 8 20 5 11 -3 20 -1 20 5 0 5 9 6 20 3
12 -4 20 -2 20 5 0 7 7 10 15 6 8 -3 15 -1 15 5 0 6 9 8 21 4 16 -5 19 -4 14
5 -5 9 -2 10 14 5 12 -4 21 -2 21 4 0 6 7 8 15 5 8 -4 15 -1 15 5 0 6 7 8 15
5 8 -4 15 -1 15 5 0 6 7 8 17 4 12 -5 14 -3 8 7 -6 10 -4 12 8 7 10 -4 17 -2
17 4 0 6 7 9 15 5 8 -3 15 -1 15 5 0 6 7 8 16 5 10 -4 13 -2 8 6 -5 8 -2 9 9
5 10 -4 17 -2 17 4 0 6 7 8 16 5 10 -4 13 -2 8 6 -5 8 -2 9 9 5 10 -3 17 -2
17 3 0 5 7 6 17 3 10 -4 14 -2 10 4 -8 12 20 26 34 17 5 -3 9 0 9 6 0 6 5 8
10 5 6 -3 10 -1 10 5 0 6 5 8 10 5 6 -3 10 -1 10 5 0 6 5 8 10 5 6 -3 10 -1
10 5 0 6 5 8 10 5 6 -3 10 -1 10 5 0 6 5 8 10 5 6 -3 10 -1 10 5 0 6 5 8 10 5
6 -3 10 -1 10 5 0 6 5 8 10 5 6 -3 10 -1 10 5 0 6 5 8 10 5 6 -3 10 -1 10 5 0
6 5 8 10 5 6 -3 10 -1 10 5 0 6 5 8 10 5 6 -3 10 -2 10 4 0 6 10 15 21 22 17
9 20 8 14 -3 -3 -7 1 -4 9 6 9 11 16 16 16 11 0 -5 7 0 16 11 8 10 13 12 9 4
-4 -8 1 -6 9 4 9 11 16 16 16 11 0 -5 7 0 16 11 8 10 13 12 9 4 -4 -8 3 -4 15
10 12 14 19 18 15 10 -4 -8 2 -6 12 5 10 12 27 27 37 35 18 13 19 13 12 0 -4
-8 2 -4 14 10 12 14 18 18 14 10 -4 -8 7 0 24 18 17 19 36 31 41 28 5 -4 13
-1 17 5 4 8 3 9 -4 5 -25 -15 -11 1 21 24 25 19 29 20 17 4 -8 -10 9 5 37 34
29 29 57 51 62 48 5 -3 28 16 51 44 23 28 45 48 49 45 4 -2 32 20 61 50 30 30
50 55 45 55 -6 0 15 24 46 53 30 28 46 45 34 37 -12 -8 -1 5 25 30 25 25 38
41 30 35 -9 -5 2 8 24 29 23 22 32 34 21 27 -11 -7 -4 1 15 19 19 18 28 29 20
26 -8 -4 -1 5 15 19 17 15 23 24 15 19 -13 -7 -13 -5 -1 12 8 10 26 30 40 43
14 13 19 20 11 16 -8 -4 -4 3 10 15 14 12 18 19 10 15 -8 -4 -4 3 10 15 14 12
18 19 10 15 -13 -6 -13 -5 0 7 8 7 16 20 18 28 2 8 13 23 25 33 12 10 15 16 7
12 -10 -4 -9 -2 2 8 10 8 15 17 11 20 -3 4 -1 7 5 7 7 0 11 3 11 8 -3 19 2 33
11 27 6 -3 7 1 4 9 -4 9 1 18 10 22 9 3 13 10 10 15 -3 5 0 9 6 9 6 0 8 5 5
10 -3 6 -1 10 5 10 6 0 8 5 5 10 -3 6 -1 10 5 10 6 0 8 4 5 10 -3 6 -1 10 5
10 6 0 8 5 5 10 -3 6 -1 10 5 10 6 0 8 5 5 10 -3 6 -1 10 5 10 6 0 8 5 5 10
-3 6 -1 10 5 10 6 0 8 4 5 10 -3 6 -1 10 5 10 6 0 8 5 5 10 -3 6 -2 10 4 10 6
0 7 7 4 17 -5 12 -3 14 7 8 10 -6 12 -4 7 8 -3 10 -2 17 4 17 6 0 7 5 4 10 -3
6 -2 10 4 10 6 0 8 7 5 15 -4 8 -1 15 6 15 6 0 8 5 5 10 -3 6 -2 10 4 10 6 0
8 7 5 15 -4 8 -1 15 5 15 6 0 8 7 4 17 -5 12 -3 14 7 8 10 -6 12 -4 7 8 -4 10
-2 17 4 17 6 0 9 7 5 15 -3 8 -1 15 4 15 5 0 7 7 4 15 -4 8 -1 15 6 15 7 0 10
7 6 15 -3 8 -1 15 5 15 6 0 8 9 4 21 -5 16 -4 19 5 14 9 -5 10 -2 5 14 -3 11
-2 21 3 21 6 0 8 10 4 22 -4 15 -2 19 7 13 10 -5 11 -2 6 14 -4 13 -2 21 5 21
7 0 9 8 5 20 -4 12 -2 20 5 20 6 0 8 10 4 25 -4 16 -2 25 5 25 7 0 9 10 5 26
-5 20 -4 25 6 19 9 -6 10 0 5 24 -4 20 -3 31 4 31 7 0 9 10 5 25 -4 16 -2 25
5 25 8 0 10 11 5 35 -4 24 -3 35 6 35 8 0 10 12 5 40 -5 28 -3 40 5 40 8 0 9
16 5 54 -4 29 -3 56 1 59 11 6 11 388 0 406 -5 7 -5 37 -1 67 5 39 3 54 -6 54
-8 0 -10 12 -5 39 4 25 2 42 -5 47 -6 3 -9 19 -5 35 3 18 1 29 -6 29 -6 0 -8
11 -4 30 3 19 1 30 -5 30 -7 0 -9 10 -5 25 4 16 2 25 -5 25 -7 0 -9 9 -5 25 4
16 2 25 -5 25 -6 0 -9 9 -6 20 3 11 1 20 -5 20 -6 0 -8 9 -5 20 3 11 1 20 -5
20 -5 0 -6 9 -3 20 4 12 2 20 -5 20 -7 0 -10 7 -6 15 3 8 1 15 -5 15 -6 0 -8
9 -4 20 4 12 2 20 -5 20 -7 0 -10 7 -6 15 3 8 1 15 -5 15 -6 0 -9 7 -5 15 3 8
1 15 -5 15 -6 0 -9 7 -5 15 3 8 1 15 -5 15 -6 0 -9 7 -5 15 3 8 1 15 -4 15 -5
0 -6 7 -3 17 5 12 3 14 -7 8 -10 -6 -12 -4 -7 8 4 10 2 17 -4 17 -6 0 -9 7 -5
15 3 8 1 15 -4 15 -5 0 -6 7 -3 17 5 12 3 14 -7 8 -10 -6 -12 -4 -7 8 3 10 2
17 -4 17 -6 0 -7 5 -4 10 3 6 1 10 -5 10 -7 0 -9 7 -6 16 4 10 2 13 -6 8 -8
-5 -9 -2 -5 9 3 10 2 17 -4 17 -6 0 -7 5 -4 10 3 6 1 10 -5 10 -6 0 -8 5 -5
10 3 6 2 10 -4 10 -6 0 -7 7 -4 17 4 10 2 14 -4 10 -13 -8 -26 20 -16 35 4 7
1 8 -7 3 -10 -6 -12 -4 -7 9 5 11 3 15 -5 10 -8 -5 -9 -2 -5 10 4 10 3 15 -3
11 -9 -6 -14 8 -11 28 0 4 -4 7 -10 7 -5 0 -7 5 -4 10 3 6 1 10 -5 10 -6 0 -8
5 -5 10 3 6 2 10 -4 10 -6 0 -15 10 -22 21 -9 17 -8 20 3 14 7 -3 4 1 -6 9
-11 9 -16 16 -11 16 5 0 0 7 -11 16 -10 8 -12 13 -4 9 8 -4 5 2 -7 12 -12 10
-23 25 -25 33 -2 8 -10 21 -18 28 -13 12 -13 13 0 7 8 -4 4 3 -10 15 -14 12
-18 19 -10 15 8 -4 4 3 -10 15 -14 12 -18 19 -10 15 8 -4 2 5 -15 20 -16 14
-23 23 -15 20 8 -4 4 3 -10 15 -14 12 -18 19 -10 15 8 -4 -1 7 -20 25 -19 18
-26 27 -15 20 11 -7 4 2 -16 21 -50 48 -90 98 -64 79 11 -8 -5 10 -36 40 -30
30 -44 46 -29 35 14 -11 -3 8 -39 42 -36 33 -95 92 -131 130 -36 38 -56 57
-45 43 11 -15 -5 -1 -35 29 -30 31 -48 47 -40 36 19 -26 -31 14 -79 64 -19 20
-30 29 -25 21 5 -9 -2 -4 -15 10 -13 14 -20 18 -16 10 3 -8 -6 -1 -20 15 -15
17 -24 24 -20 17 6 -11 3 -11 -13 -1 -12 7 -18 17 -16 21 3 5 2 8 -3 7 -20 -3
-34 2 -28 11 4 6 3 10 -2 9 -21 -4 -34 2 -27 13 4 7 3 8 -4 4 -7 -4 -24 5 -39
21 -14 15 -23 22 -19 16 12 -22 -4 -14 -31 15 -15 15 -23 21 -18 14 6 -11 3
-12 -14 -3 -11 7 -21 17 -21 23 0 6 -3 8 -7 5 -3 -4 -12 1 -20 11 -8 9 -11 11
-8 4 5 -10 -1 -9 -24 2 -17 9 -31 21 -31 27 0 6 -4 7 -10 4 -5 -3 -10 -1 -10
5 0 6 -4 8 -10 5 -5 -3 -10 -1 -10 5 0 6 -4 8 -10 5 -5 -3 -10 -1 -10 5 0 6
-4 8 -10 5 -5 -3 -10 -1 -10 5 0 6 -4 8 -10 5 -5 -3 -10 -1 -10 5 0 6 -4 9 -9
6 -13 -8 -42 4 -35 15 3 5 -2 6 -10 3 -9 -3 -16 -1 -16 6 0 6 -4 8 -10 5 -5
-3 -10 -2 -10 4 0 6 -7 7 -17 4 -11 -4 -14 -3 -9 5 5 8 2 10 -8 6 -9 -3 -16
-1 -16 6 0 6 -4 8 -10 5 -5 -3 -10 -2 -10 4 0 6 -7 8 -15 5 -8 -4 -15 -1 -15
6 0 6 -4 8 -10 5 -5 -3 -10 -2 -10 4 0 6 -7 8 -15 5 -8 -4 -15 -1 -15 5 0 6
-7 8 -15 5 -8 -4 -15 -1 -15 5 0 6 -7 8 -15 5 -8 -4 -15 -1 -15 5 0 6 -7 8
-15 5 -8 -4 -15 -1 -15 5 0 6 -7 8 -15 5 -8 -4 -15 -1 -15 5 0 6 -7 8 -15 5
-8 -4 -15 -1 -15 5 0 6 -7 8 -15 5 -8 -4 -15 -1 -15 6 0 7 -8 9 -20 5 -12 -4
-20 -2 -20 5 0 7 -8 9 -20 5 -11 -3 -20 -2 -20 3 0 6 -10 8 -22 4 -15 -3 -19
-2 -14 7 6 8 1 10 -18 5 -17 -4 -26 -2 -26 6 0 7 -8 9 -20 5 -12 -4 -20 -2
-20 5 0 8 -10 9 -30 5 -19 -4 -30 -3 -30 4 0 7 -10 9 -25 5 -16 -4 -25 -2 -25
6 0 8 -12 10 -39 5 -25 -4 -41 -2 -46 5 -4 7 -26 9 -65 4 -32 -3 -64 -3 -71 2
-18 11 -579 11 -579 0z m707 -1059 c7 -4 24 -5 39 -1 21 5 25 4 19 -6 -6 -10
-4 -12 8 -7 10 3 17 2 17 -4 0 -6 4 -8 9 -4 5 3 38 -23 73 -57 35 -34 56 -58
48 -53 -8 4 -2 -4 13 -19 17 -15 26 -33 23 -41 -3 -8 -1 -15 4 -15 5 0 6 -7 3
-17 -5 -12 -3 -14 7 -8 10 6 11 2 6 -19 -4 -18 -3 -25 4 -21 6 4 10 -17 10
-59 l0 -66 83 -2 c45 -2 106 -2 135 -1 28 1 52 -2 52 -8 0 -5 12 -6 26 -3 20
5 25 4 19 -6 -5 -9 -2 -10 14 -5 13 4 21 2 21 -5 0 -6 4 -8 10 -5 6 3 10 1 10
-5 0 -6 5 -8 10 -5 6 3 10 1 10 -6 0 -7 3 -9 7 -6 3 4 12 -1 20 -11 9 -11 12
-12 8 -2 -4 8 3 4 16 -10 13 -14 20 -20 15 -13 -18 27 2 11 64 -53 36 -37 58
-64 50 -60 -8 4 -6 0 4 -8 11 -9 16 -16 11 -16 -5 0 -1 -6 10 -13 10 -8 15
-19 11 -25 -4 -7 -3 -12 3 -12 6 0 7 -7 4 -17 -5 -12 -3 -14 7 -8 10 6 12 4 7
-8 -4 -10 -2 -17 4 -17 6 0 9 -7 5 -15 -3 -8 -1 -15 5 -15 6 0 8 -9 4 -21 -5
-16 -4 -19 5 -14 9 5 10 1 5 -15 -5 -16 -4 -20 5 -15 9 5 10 2 5 -14 -4 -13
-2 -21 5 -21 7 0 10 -7 6 -15 -3 -8 -1 -15 5 -15 6 0 9 -7 5 -15 -3 -8 -1 -15
5 -15 6 0 8 -9 4 -21 -5 -16 -4 -19 5 -14 9 5 10 2 5 -14 -4 -13 -2 -21 5 -21
7 0 10 -7 6 -15 -3 -8 -1 -15 5 -15 6 0 9 -7 5 -15 -3 -8 -1 -15 5 -15 6 0 8
-9 4 -21 -5 -16 -4 -19 5 -14 9 5 10 2 5 -14 -4 -13 -2 -21 5 -21 7 0 10 -7 6
-15 -3 -8 -1 -15 5 -15 6 0 9 -7 5 -15 -3 -8 -1 -15 5 -15 6 0 8 -9 4 -21 -5
-16 -4 -19 5 -14 9 5 10 2 5 -14 -4 -13 -2 -21 5 -21 7 0 10 -7 6 -15 -3 -8
-1 -15 5 -15 6 0 9 -7 5 -15 -3 -8 -1 -15 5 -15 6 0 9 -7 5 -15 -3 -8 -1 -15
5 -15 6 0 9 -7 5 -15 -3 -8 -1 -15 5 -15 6 0 9 -7 5 -15 -3 -8 -1 -15 5 -15 6
0 9 -7 5 -15 -3 -8 -1 -15 4 -15 5 0 6 -7 3 -17 -4 -11 -3 -14 5 -9 7 4 13 1
14 -6 0 -7 2 -17 2 -23 3 -21 17 -34 31 -28 8 3 15 0 15 -7 0 -7 7 -10 15 -6
8 3 15 1 15 -5 0 -6 4 -7 10 -4 12 8 49 -12 75 -39 11 -12 16 -16 11 -9 -16
25 0 13 39 -28 22 -23 33 -39 25 -35 -8 4 -4 -1 9 -12 13 -11 21 -24 17 -31
-4 -6 -2 -11 4 -11 7 0 10 -7 6 -15 -3 -8 -1 -15 5 -15 7 0 8 -12 4 -30 -4
-17 -2 -30 3 -30 5 0 10 -42 11 -92 5 -324 0 -536 -12 -555 -4 -7 -5 -24 -1
-38 4 -16 2 -25 -6 -25 -7 0 -9 -8 -5 -20 4 -11 2 -20 -4 -20 -6 0 -8 -7 -5
-15 3 -8 -6 -26 -23 -41 -15 -15 -21 -24 -13 -19 8 4 -5 -13 -30 -39 -44 -45
-61 -58 -44 -33 5 7 2 5 -7 -5 -9 -9 -19 -14 -23 -11 -3 4 -6 1 -6 -6 0 -7 -4
-9 -10 -6 -5 3 -10 2 -10 -4 0 -6 -7 -8 -15 -5 -8 4 -15 1 -15 -6 0 -7 -7 -10
-15 -6 -8 3 -15 1 -15 -5 0 -7 -10 -9 -25 -5 -16 4 -25 2 -25 -5 0 -7 -12 -9
-35 -5 -23 5 -35 3 -35 -4 0 -8 -13 -10 -39 -5 -25 4 -41 2 -46 -5 -4 -7 -22
-9 -51 -4 -32 4 -44 3 -44 -6 0 -9 -14 -11 -54 -6 -37 5 -56 3 -61 -4 -5 -8
-22 -10 -52 -5 -29 4 -49 2 -59 -5 -9 -8 -30 -10 -60 -5 -30 4 -50 2 -60 -5
-9 -8 -32 -10 -69 -5 -36 4 -61 3 -69 -4 -7 -6 -46 -11 -87 -11 -41 0 -128 -2
-194 -5 -103 -5 -370 -7 -854 -5 -67 0 -120 5 -127 11 -9 7 -38 9 -84 4 -50
-5 -75 -3 -85 5 -10 8 -33 10 -74 5 -41 -5 -61 -3 -66 5 -5 8 -25 10 -65 5
-40 -5 -60 -3 -65 5 -5 8 -25 10 -65 5 -38 -4 -60 -3 -65 4 -4 8 -24 9 -54 5
-32 -4 -51 -2 -56 5 -4 8 -22 10 -51 5 -31 -4 -44 -3 -44 5 0 9 -13 10 -45 5
-33 -4 -45 -3 -45 6 0 9 -10 10 -35 6 -23 -5 -35 -3 -35 4 0 8 -11 9 -30 5
-20 -4 -30 -3 -30 5 0 7 -8 9 -20 5 -12 -4 -20 -2 -20 5 0 7 -8 9 -20 5 -11
-4 -20 -2 -20 4 0 6 -7 7 -17 4 -11 -4 -14 -3 -9 5 4 7 2 10 -7 7 -8 -4 -41
21 -78 57 -35 34 -57 58 -49 53 8 -5 0 6 -17 24 -18 18 -33 38 -33 44 1 7 -1
177 -4 379 -4 247 -2 369 5 374 6 3 7 19 4 36 -6 23 -4 29 6 23 9 -6 11 -3 6
8 -3 10 -2 17 4 17 6 0 8 4 5 9 -4 5 6 23 20 40 30 36 91 82 80 60 -4 -7 -1
-6 7 3 8 10 17 15 20 11 4 -3 7 -1 7 6 0 7 5 9 10 6 6 -3 10 -1 10 5 0 6 5 8
10 5 6 -3 10 -1 10 5 0 7 7 10 15 6 8 -3 15 -1 15 5 0 6 9 8 20 4 12 -4 20 -2
20 5 0 8 11 11 30 8 20 -3 35 1 43 11 10 13 10 14 -3 6 -13 -8 -12 -7 0 5 9 9
14 22 12 29 -3 9 0 11 8 6 10 -6 12 -4 7 8 -3 10 -2 17 4 17 6 0 8 9 4 21 -5
16 -4 19 5 14 9 -5 10 -2 5 14 -4 12 -2 21 4 21 6 0 8 7 5 15 -4 8 -2 15 4 15
6 0 8 10 4 22 -4 15 -2 19 7 13 10 -5 11 -2 6 14 -4 12 -2 21 4 21 6 0 8 7 5
15 -4 8 -1 15 6 15 7 0 9 8 5 21 -5 16 -4 19 5 14 9 -5 10 -2 5 14 -4 12 -2
21 4 21 6 0 8 7 5 15 -4 8 -1 15 6 15 7 0 9 8 5 21 -5 16 -4 19 5 14 9 -5 10
-2 5 14 -4 12 -2 21 4 21 6 0 8 7 5 15 -4 8 -1 15 6 15 7 0 9 8 5 21 -5 16 -4
19 5 14 9 -5 10 -2 5 14 -4 12 -2 21 4 21 6 0 8 7 5 15 -4 8 -1 15 5 15 6 0 8
7 5 15 -4 8 -1 15 5 15 6 0 8 7 5 15 -4 8 -1 15 6 15 7 0 9 8 5 21 -5 16 -4
19 6 14 9 -6 11 -3 6 8 -4 10 -2 17 4 17 6 0 9 7 5 15 -3 8 -1 15 4 15 5 0 7
7 4 15 -4 8 -1 15 5 15 6 0 8 7 5 15 -4 8 -1 15 6 15 6 0 8 5 5 10 -3 6 -2 10
4 10 6 0 8 7 5 15 -4 8 -1 15 6 15 6 0 8 5 5 10 -3 6 -1 10 5 10 6 0 8 5 5 10
-3 6 -1 10 5 10 6 0 9 4 5 9 -3 5 22 37 55 71 33 34 60 57 60 53 0 -4 5 0 11
10 6 9 14 15 20 12 5 -4 9 -1 9 5 0 6 5 8 10 5 6 -3 10 -1 10 5 0 6 5 8 10 5
6 -3 10 -1 10 5 0 6 5 8 10 5 6 -3 10 -1 10 5 0 7 7 10 15 6 8 -3 15 -1 15 5
0 6 7 9 15 5 8 -3 15 -1 15 5 0 7 10 9 25 5 16 -4 25 -2 25 5 0 7 12 9 34 5
22 -4 37 -2 42 5 4 7 22 9 50 5 63 -8 76 -1 68 39 -3 19 -1 35 5 39 6 4 8 18
5 32 -4 15 -2 24 6 24 7 0 9 8 5 20 -4 12 -2 20 5 20 7 0 10 7 6 15 -3 8 -1
15 5 15 6 0 7 5 4 10 -9 14 36 89 72 120 l28 25 -25 -31 c-14 -16 -7 -12 14
10 22 23 36 34 32 26 -6 -12 -5 -12 6 1 7 9 19 14 27 11 9 -3 11 0 6 7 -5 9 2
11 28 6 19 -4 37 -3 40 2 7 11 697 11 714 0z"/>
<path d="M2833 7186 c-3 -4 -21 -6 -39 -3 -19 3 -34 2 -34 -2 0 -4 -12 -13
-26 -20 -17 -7 -24 -17 -20 -26 3 -8 1 -15 -4 -15 -5 0 -6 -7 -3 -17 5 -12 3
-14 -7 -8 -10 6 -12 4 -7 -8 3 -10 2 -17 -3 -17 -5 0 -7 -7 -4 -15 4 -8 1 -15
-5 -15 -6 0 -8 -7 -5 -15 4 -8 1 -15 -5 -15 -6 0 -8 -7 -5 -15 4 -8 1 -15 -5
-15 -6 0 -8 -7 -5 -15 4 -8 1 -15 -5 -15 -6 0 -8 -7 -5 -15 4 -8 1 -15 -5 -15
-6 0 -8 -7 -5 -15 4 -8 1 -15 -5 -15 -6 0 -8 -7 -5 -15 4 -8 1 -15 -6 -15 -7
0 -9 -8 -5 -21 5 -16 4 -19 -5 -14 -9 5 -10 2 -5 -14 4 -12 2 -21 -4 -21 -6 0
-8 -7 -5 -15 4 -8 1 -15 -5 -15 -6 0 -8 -7 -5 -15 4 -8 2 -15 -4 -15 -6 0 -8
-10 -4 -22 4 -15 2 -19 -7 -13 -10 5 -11 2 -6 -14 4 -12 2 -21 -4 -21 -6 0 -8
-7 -5 -15 4 -8 2 -15 -4 -15 -6 0 -8 -10 -4 -22 4 -15 2 -19 -7 -13 -10 5 -11
2 -6 -14 4 -12 2 -21 -4 -21 -6 0 -8 -7 -5 -15 4 -8 1 -15 -6 -15 -7 0 -9 -8
-5 -21 5 -15 4 -19 -4 -15 -6 4 -11 2 -11 -3 0 -6 7 -11 15 -11 8 0 15 -4 15
-9 0 -5 18 -7 40 -4 21 3 47 2 57 -2 15 -6 1741 -7 1981 -2 50 1 72 6 72 15 0
6 -5 12 -11 12 -6 0 -9 7 -5 15 3 8 1 15 -5 15 -6 0 -8 9 -4 20 4 12 2 20 -5
20 -7 0 -10 7 -6 15 3 8 1 15 -5 15 -6 0 -9 7 -5 15 3 8 1 15 -5 15 -6 0 -8 9
-4 21 5 16 4 19 -5 14 -9 -5 -10 -2 -5 14 4 12 2 21 -4 21 -6 0 -8 7 -5 15 4
8 1 15 -6 15 -7 0 -10 7 -6 15 3 8 1 15 -5 15 -6 0 -9 7 -5 15 3 8 1 15 -5 15
-6 0 -9 7 -5 15 3 8 1 15 -5 15 -6 0 -9 7 -5 15 3 8 1 15 -5 15 -6 0 -9 7 -5
15 3 8 1 15 -5 15 -6 0 -9 7 -5 15 3 8 1 15 -5 15 -6 0 -9 7 -5 15 3 8 1 15
-5 15 -6 0 -9 7 -5 15 3 8 1 15 -5 15 -6 0 -9 7 -5 15 3 8 1 15 -4 15 -5 0 -7
7 -4 15 4 8 1 15 -5 15 -6 0 -8 7 -5 15 4 8 1 15 -6 15 -6 0 -8 5 -5 10 3 6 1
10 -5 10 -7 0 -10 7 -6 15 3 8 1 15 -5 15 -6 0 -9 7 -5 15 3 8 0 15 -6 15 -6
0 -8 3 -5 7 4 3 -1 12 -11 20 -9 8 -11 11 -3 7 9 -4 12 -3 7 4 -4 6 -14 8 -23
5 -10 -4 -14 -2 -10 4 5 7 -6 11 -31 11 -20 0 -376 1 -790 3 -415 2 -756 0
-759 -5z"/>
<path d="M2320 6128 c0 -4 -7 -4 -17 -1 -12 5 -14 3 -8 -7 6 -10 4 -12 -8 -7
-10 4 -17 1 -17 -5 0 -6 -3 -8 -7 -5 -3 4 -12 -1 -20 -11 -9 -10 -12 -11 -7
-2 4 8 -8 -1 -27 -21 -19 -19 -25 -24 -14 -10 l20 26 -27 -24 c-15 -13 -25
-28 -22 -32 2 -5 -4 -17 -15 -28 -11 -11 -17 -22 -13 -25 3 -3 0 -6 -7 -6 -7
0 -9 -4 -6 -10 3 -5 1 -10 -5 -10 -7 0 -9 -8 -5 -19 3 -11 1 -22 -5 -26 -13
-8 -13 -52 1 -61 6 -3 8 -17 4 -31 -4 -18 -2 -23 6 -17 9 5 10 2 6 -9 -3 -10
-2 -17 4 -17 6 0 7 -4 4 -10 -3 -5 -1 -10 6 -10 7 0 10 -3 6 -6 -3 -4 2 -14
11 -23 10 -9 12 -12 5 -7 -24 16 -14 0 19 -30 18 -16 26 -20 18 -10 -12 16 -9
15 18 -4 17 -13 32 -27 32 -32 0 -4 7 -4 17 -1 11 5 14 3 8 -6 -5 -10 -2 -11
14 -6 11 3 21 3 21 -2 0 -4 29 -8 64 -8 35 0 62 4 59 9 -3 5 0 7 8 4 8 -3 20
1 27 9 8 7 17 12 20 11 4 -2 31 21 61 51 30 30 49 51 43 47 -9 -6 -9 -1 -1 18
7 14 16 23 22 19 5 -3 6 3 2 17 -4 12 -3 20 1 17 5 -3 9 21 9 54 0 32 -4 59
-9 59 -4 0 -5 7 -2 16 4 10 2 13 -6 8 -8 -5 -9 -2 -5 9 3 10 3 17 -2 17 -5 0
-16 12 -26 26 -12 18 -13 24 -4 19 8 -4 4 2 -8 12 -12 10 -30 27 -40 38 -10
12 -16 16 -13 10 3 -6 -2 -3 -11 7 -9 9 -19 14 -23 11 -3 -4 -6 -1 -6 5 0 6
-7 9 -15 6 -8 -4 -15 -1 -15 6 0 7 -8 9 -20 5 -11 -3 -20 -3 -20 2 0 5 -18 8
-40 8 -22 0 -40 -3 -40 -7z"/>
<path d="M4770 6116 c0 -4 -7 -6 -15 -2 -8 3 -15 1 -15 -5 0 -6 -4 -7 -10 -4
-5 3 -10 1 -10 -6 0 -7 -3 -10 -6 -6 -4 3 -14 -2 -23 -11 -10 -12 -13 -12 -6
-2 5 8 -8 -1 -28 -19 -38 -36 -51 -54 -20 -30 13 11 13 8 -2 -12 -11 -15 -23
-25 -27 -22 -4 2 -5 -4 -1 -13 5 -13 3 -15 -7 -9 -10 6 -12 4 -7 -8 3 -10 2
-17 -4 -17 -6 0 -8 -9 -4 -20 4 -11 2 -20 -4 -20 -14 0 -14 -67 -1 -75 6 -4 8
-15 5 -26 -4 -11 -2 -19 5 -19 7 0 9 -7 6 -16 -4 -10 -2 -13 6 -8 8 5 9 2 5
-10 -4 -9 -3 -15 1 -12 4 3 14 -4 21 -16 10 -16 10 -19 -1 -14 -7 4 -2 -1 12
-11 14 -10 35 -28 47 -39 12 -12 24 -19 27 -16 3 3 6 0 6 -6 0 -6 7 -9 17 -5
11 5 14 3 8 -6 -5 -10 -2 -11 14 -6 12 3 21 2 21 -4 0 -5 23 -10 50 -9 28 0
50 5 50 10 0 6 9 8 20 5 11 -3 20 -1 20 5 0 5 5 8 12 6 6 -2 20 4 30 14 10 10
22 16 27 14 4 -3 21 9 37 27 l29 32 -30 -25 c-24 -19 -23 -17 4 10 20 19 35
40 33 47 -2 7 2 13 8 13 6 0 8 5 5 10 -3 6 -1 10 5 10 7 0 9 8 5 20 -4 11 -2
20 4 20 6 0 11 20 11 45 0 26 -5 45 -11 45 -6 0 -9 9 -6 20 3 11 1 20 -5 20
-6 0 -7 7 -4 16 3 8 2 13 -3 10 -5 -3 -12 1 -15 10 -4 10 -2 13 7 8 6 -4 -4 8
-24 27 -19 19 -24 25 -10 14 l26 -20 -24 27 c-13 15 -28 25 -32 22 -5 -2 -17
4 -28 15 -11 11 -22 17 -25 14 -3 -4 -6 -1 -6 5 0 6 -7 9 -15 6 -8 -4 -15 -2
-15 2 0 5 -31 9 -70 9 -38 0 -70 -4 -70 -9z"/>
<path d="M7165 5805 c5 -47 3 -65 -5 -65 -8 0 -10 -14 -5 -49 4 -33 3 -51 -5
-56 -7 -5 -9 -21 -5 -46 5 -27 3 -39 -5 -39 -8 0 -10 -12 -5 -40 5 -27 3 -40
-5 -40 -7 0 -9 -12 -4 -35 4 -23 2 -35 -5 -35 -6 0 -8 -11 -4 -30 4 -20 2 -30
-7 -30 -8 0 -9 -10 -5 -30 4 -19 3 -30 -4 -30 -6 0 -8 -12 -4 -30 3 -19 1 -30
-6 -30 -7 0 -9 -9 -5 -25 4 -16 2 -25 -5 -25 -7 0 -9 -9 -5 -25 4 -16 2 -25
-5 -25 -7 0 -9 -9 -5 -25 4 -16 2 -25 -5 -25 -7 0 -9 -9 -5 -25 3 -14 2 -25
-4 -25 -6 0 -8 -9 -5 -20 3 -12 0 -20 -7 -20 -7 0 -9 -8 -5 -20 4 -12 2 -20
-5 -20 -6 0 -8 -10 -4 -25 3 -14 2 -25 -4 -25 -6 0 -8 -9 -5 -20 3 -11 1 -20
-5 -20 -6 0 -8 -9 -5 -20 3 -11 1 -20 -5 -20 -6 0 -8 -10 -4 -22 4 -15 2 -19
-7 -13 -10 5 -11 2 -6 -14 4 -13 2 -21 -5 -21 -7 0 -9 -8 -5 -20 4 -12 2 -20
-5 -20 -7 0 -9 -8 -5 -20 4 -11 2 -20 -4 -20 -6 0 -8 -7 -5 -15 4 -8 1 -15 -6
-15 -7 0 -9 -8 -5 -21 5 -16 4 -19 -5 -14 -9 5 -10 2 -5 -14 4 -12 2 -21 -4
-21 -6 0 -8 -7 -5 -15 4 -8 1 -15 -6 -15 -7 0 -9 -8 -5 -21 5 -16 4 -19 -5
-14 -9 5 -10 2 -5 -14 4 -12 2 -21 -4 -21 -6 0 -8 -7 -5 -15 4 -8 1 -15 -5
-15 -6 0 -8 -7 -5 -15 4 -8 1 -15 -5 -15 -6 0 -8 -7 -5 -15 4 -8 1 -15 -5 -15
-6 0 -8 -7 -5 -15 4 -8 1 -15 -5 -15 -6 0 -8 -7 -5 -15 4 -8 1 -15 -5 -15 -6
0 -8 -7 -5 -15 4 -8 1 -15 -5 -15 -6 0 -8 -7 -5 -15 4 -8 1 -15 -5 -15 -6 0
-8 -7 -4 -17 5 -12 3 -14 -7 -8 -10 6 -12 4 -7 -8 3 -10 2 -17 -3 -17 -5 0 -7
-7 -4 -15 4 -8 1 -15 -5 -15 -6 0 -8 -7 -5 -15 4 -8 1 -15 -5 -15 -6 0 -8 -7
-4 -17 4 -11 3 -14 -5 -9 -8 5 -10 2 -6 -8 3 -9 1 -16 -5 -16 -6 0 -8 -7 -4
-17 5 -12 3 -14 -7 -8 -10 6 -12 4 -7 -8 3 -10 2 -17 -3 -17 -5 0 -7 -7 -4
-15 4 -8 1 -15 -6 -15 -6 0 -8 -4 -5 -10 3 -5 2 -10 -4 -10 -6 0 -8 -7 -5 -15
4 -8 1 -15 -6 -15 -6 0 -8 -4 -5 -10 3 -6 2 -10 -4 -10 -6 0 -7 -7 -4 -17 5
-12 3 -14 -7 -8 -10 6 -12 4 -7 -8 3 -10 2 -17 -3 -17 -5 0 -6 -7 -3 -17 4
-11 3 -14 -5 -9 -8 5 -10 2 -6 -8 3 -9 1 -16 -6 -16 -6 0 -8 -4 -5 -10 3 -5 1
-10 -5 -10 -6 0 -9 -4 -6 -9 8 -13 -4 -42 -15 -35 -5 3 -6 -2 -3 -10 3 -9 1
-16 -6 -16 -6 0 -8 -4 -5 -10 3 -5 1 -10 -5 -10 -6 0 -9 -4 -6 -9 8 -13 -4
-42 -15 -35 -5 3 -6 -3 -2 -12 4 -12 3 -15 -5 -10 -8 5 -10 2 -6 -8 3 -9 1
-16 -6 -16 -6 0 -8 -4 -5 -10 3 -5 1 -10 -5 -10 -6 0 -8 -4 -5 -10 3 -5 1 -10
-5 -10 -6 0 -8 -4 -5 -10 3 -5 1 -10 -5 -10 -6 0 -8 -4 -5 -10 3 -5 1 -10 -5
-10 -6 0 -8 -4 -5 -10 3 -5 1 -10 -5 -10 -6 0 -9 -4 -6 -9 8 -13 -4 -42 -15
-35 -5 3 -6 -3 -2 -12 4 -12 3 -15 -5 -10 -8 5 -10 1 -5 -10 4 -12 3 -15 -5
-10 -8 4 -10 2 -6 -8 3 -8 -3 -23 -14 -34 -11 -11 -18 -23 -14 -26 3 -3 0 -6
-7 -6 -7 0 -9 -4 -6 -10 3 -5 1 -10 -5 -10 -6 0 -8 -4 -5 -10 3 -6 1 -10 -5
-10 -6 0 -8 -4 -5 -10 3 -5 1 -10 -5 -10 -6 0 -8 -4 -5 -10 3 -5 1 -10 -4 -10
-6 0 -10 -3 -10 -7 3 -20 -2 -34 -11 -28 -6 3 -7 -1 -4 -9 4 -9 -1 -18 -10
-22 -9 -3 -13 -10 -10 -15 3 -5 0 -9 -6 -9 -6 0 -8 -4 -5 -10 3 -5 1 -10 -4
-10 -6 0 -10 -3 -10 -7 3 -21 -2 -33 -13 -27 -7 5 -8 3 -3 -6 5 -8 1 -18 -10
-27 -11 -7 -15 -13 -10 -13 5 0 0 -7 -11 -16 -10 -8 -13 -12 -6 -9 11 6 12 3
3 -14 -7 -11 -17 -21 -23 -21 -6 0 -8 -3 -5 -7 4 -3 -1 -12 -11 -20 -9 -8 -11
-11 -4 -8 11 6 12 3 3 -14 -7 -11 -16 -21 -22 -21 -6 0 -8 -4 -4 -10 3 -5 -2
-18 -12 -28 -10 -10 -19 -25 -21 -33 -2 -8 -8 -19 -15 -24 -7 -6 -13 -17 -15
-25 -2 -8 -13 -23 -25 -33 -12 -10 -16 -16 -9 -12 21 11 13 -5 -15 -32 -16
-15 -21 -23 -13 -19 8 4 4 -2 -10 -14 -14 -12 -18 -18 -10 -14 20 11 -14 -44
-44 -69 -11 -10 -14 -16 -6 -12 8 4 4 -3 -10 -15 -14 -12 -18 -19 -10 -15 8 4
6 -1 -4 -9 -11 -9 -16 -16 -12 -16 4 0 -1 -13 -10 -29 -10 -17 -21 -28 -26
-25 -5 3 -8 2 -7 -3 3 -20 -2 -34 -11 -28 -6 4 -10 3 -9 -2 4 -21 -2 -34 -13
-27 -7 4 -8 3 -4 -4 4 -7 -4 -23 -18 -37 -14 -14 -22 -25 -18 -25 4 0 -4 -10
-18 -21 -14 -11 -18 -18 -10 -14 8 4 4 -3 -10 -15 -14 -12 -18 -18 -10 -14 13
7 13 5 1 -12 -8 -10 -26 -30 -40 -43 -14 -13 -19 -20 -11 -16 8 4 4 -3 -10
-15 -14 -12 -18 -18 -10 -14 13 7 13 5 1 -12 -8 -10 -26 -30 -40 -43 -14 -13
-19 -20 -11 -16 8 3 2 -6 -15 -20 -16 -15 -24 -24 -16 -20 9 5 8 -1 -4 -19
-17 -25 -34 -38 -19 -14 4 7 3 8 -5 4 -6 -4 -9 -12 -5 -17 3 -5 -12 -26 -33
-46 -21 -20 -31 -33 -23 -27 9 5 4 -2 -10 -16 -14 -14 -19 -21 -10 -15 21 13
-14 -31 -54 -69 -17 -16 -24 -25 -16 -21 8 3 1 -6 -15 -22 -17 -15 -24 -24
-15 -19 8 4 -3 -9 -25 -29 -22 -21 -31 -32 -20 -24 20 14 20 13 1 -11 -11 -14
-38 -43 -60 -64 -23 -22 -32 -34 -21 -26 11 7 2 -5 -20 -25 -22 -21 -31 -32
-20 -25 11 7 0 -7 -25 -31 -25 -23 -36 -37 -25 -30 11 7 0 -6 -25 -30 -25 -23
-36 -37 -25 -29 11 7 0 -7 -25 -31 -25 -24 -38 -39 -30 -34 9 6 -7 -12 -35
-40 -28 -27 -41 -43 -30 -35 12 8 -4 -9 -34 -38 -31 -29 -55 -56 -54 -61 1 -5
-20 -27 -48 -50 -27 -24 -47 -46 -44 -50 2 -5 -29 -38 -70 -75 -41 -37 -74
-70 -73 -74 3 -9 -435 -447 -444 -445 -4 2 -33 -26 -64 -62 -31 -35 -61 -63
-66 -62 -5 1 -37 -28 -71 -64 -34 -36 -55 -56 -47 -44 8 11 -10 -5 -40 -35
-30 -31 -48 -47 -40 -35 8 11 -5 0 -30 -25 -25 -25 -40 -39 -35 -30 6 8 -10
-5 -35 -31 -25 -25 -40 -38 -35 -29 6 9 -7 -2 -29 -25 -21 -22 -33 -31 -26
-20 7 11 -4 2 -26 -21 -21 -22 -34 -33 -29 -24 6 9 -6 0 -25 -20 -19 -20 -44
-43 -54 -51 -17 -12 -19 -12 -12 1 4 9 2 8 -7 -2 -8 -10 -18 -14 -22 -10 -5 4
-5 1 -1 -5 6 -10 373 -13 1782 -13 l1774 0 0 2935 c0 2154 -3 2935 -11 2935
-8 0 -9 -20 -4 -65z"/>
<path d="M0 2871 l0 -2871 1770 0 c1342 0 1770 3 1770 12 0 6 -3 8 -7 5 -3 -4
-12 1 -20 11 -8 9 -11 11 -8 3 5 -9 -1 -8 -19 4 -25 17 -38 34 -14 19 7 -4 8
-3 4 5 -4 6 -12 9 -17 5 -5 -3 -35 21 -67 53 -31 32 -50 49 -42 37 8 -11 -5 0
-30 25 -25 26 -40 39 -35 30 6 -8 -10 5 -35 30 -25 26 -40 39 -35 30 6 -8 -11
7 -38 35 -26 28 -51 50 -56 49 -5 -1 -26 18 -46 42 -20 25 -40 43 -44 40 -5
-2 -32 22 -60 55 -29 33 -56 58 -60 56 -4 -3 -51 42 -105 100 -54 58 -101 102
-104 99 -8 -8 -242 226 -236 236 2 4 -41 49 -95 100 -55 51 -98 96 -95 100 2
4 -23 31 -56 59 -32 29 -58 56 -57 61 1 4 -23 32 -54 61 -30 29 -46 46 -34 38
11 -8 -2 8 -30 35 -28 28 -44 46 -35 40 8 -5 -5 10 -31 35 -25 25 -38 41 -29
35 8 -5 -5 10 -30 34 -25 24 -36 38 -25 31 11 -8 2 4 -21 26 -22 21 -33 35
-24 29 8 -5 -3 8 -25 30 -23 22 -50 51 -61 65 -19 24 -19 25 1 11 11 -8 2 3
-20 24 -22 20 -31 32 -20 25 11 -7 2 4 -20 25 -22 20 -33 33 -25 29 9 -5 2 4
-15 19 -16 16 -23 26 -15 22 8 -4 2 5 -15 20 -16 14 -23 23 -15 19 8 -4 -2 9
-23 29 -22 20 -36 40 -33 46 4 5 1 13 -5 17 -8 5 -10 2 -5 -7 4 -8 1 -5 -8 5
-8 10 -13 22 -11 27 3 4 0 11 -6 15 -8 4 -9 3 -5 -4 15 -24 -2 -11 -19 14 -12
18 -13 24 -4 19 8 -4 1 5 -16 20 -16 14 -23 23 -15 20 8 -4 3 3 -11 16 -14 13
-32 33 -40 43 -12 17 -12 19 1 12 8 -4 4 2 -10 14 -14 12 -18 19 -10 15 8 -4
2 5 -15 20 -16 14 -23 23 -15 20 8 -4 4 3 -10 15 -14 12 -18 19 -10 15 8 -4 4
3 -10 15 -14 12 -18 18 -10 14 8 -4 0 7 -18 24 -20 19 -31 36 -26 43 4 8 3 9
-4 5 -11 -7 -17 6 -13 27 1 5 -2 6 -7 3 -4 -2 -14 4 -21 16 -10 16 -10 19 1
12 7 -4 -2 7 -19 25 -30 29 -35 38 -32 57 0 3 -8 12 -18 21 -11 8 -12 12 -3 8
8 -4 4 3 -10 15 -14 12 -18 19 -10 15 8 -4 4 3 -10 15 -14 12 -18 19 -10 15 8
-4 5 2 -7 12 -12 10 -23 25 -25 33 -2 8 -10 21 -18 28 -13 12 -13 13 0 6 8 -4
3 4 -12 19 -29 27 -37 43 -15 31 6 -4 -1 5 -16 19 -15 15 -25 32 -22 37 3 6 2
10 -4 10 -6 0 -15 10 -22 21 -9 17 -8 20 3 14 7 -5 1 3 -14 18 -29 27 -37 43
-15 32 6 -4 1 2 -12 13 -15 12 -21 24 -16 32 5 9 4 11 -3 6 -11 -6 -16 6 -13
27 0 4 -4 7 -10 7 -5 0 -7 5 -4 10 3 6 2 10 -4 10 -6 0 -15 10 -22 21 -9 17
-8 20 3 14 7 -3 5 0 -4 8 -10 8 -15 17 -11 20 3 4 1 7 -5 7 -6 0 -19 14 -28
31 -11 23 -12 29 -2 24 7 -3 5 0 -4 8 -10 8 -15 17 -11 20 3 4 1 7 -6 7 -7 0
-9 5 -6 10 3 6 1 10 -5 10 -6 0 -8 5 -5 10 3 6 2 10 -4 10 -6 0 -18 14 -27 31
-11 23 -12 29 -2 24 7 -3 5 0 -4 8 -10 8 -15 17 -11 20 3 4 1 7 -6 7 -7 0 -9
5 -6 10 3 6 1 10 -5 10 -6 0 -8 5 -5 10 3 6 1 10 -5 10 -6 0 -8 5 -5 10 3 6 1
10 -5 10 -6 0 -8 5 -5 10 3 6 1 10 -5 10 -6 0 -8 5 -5 10 3 6 1 10 -5 10 -6 0
-8 5 -5 10 3 6 1 10 -5 10 -6 0 -8 5 -5 10 3 6 1 10 -5 10 -6 0 -8 5 -5 10 3
6 1 10 -5 10 -6 0 -8 5 -5 10 3 6 1 10 -5 10 -6 0 -8 5 -5 10 3 6 1 10 -5 10
-6 0 -8 5 -5 10 3 6 1 10 -5 10 -7 0 -9 7 -6 16 4 10 2 13 -6 8 -8 -5 -9 -2
-5 10 4 9 3 15 -2 12 -11 -7 -23 22 -15 35 3 5 0 9 -6 9 -6 0 -8 5 -5 10 3 6
1 10 -5 10 -6 0 -8 5 -5 10 3 6 2 10 -4 10 -6 0 -7 7 -4 17 4 10 2 14 -4 10
-12 -8 -26 20 -17 34 3 5 0 9 -6 9 -6 0 -8 5 -5 10 3 6 1 10 -5 10 -6 0 -8 5
-5 10 3 6 1 10 -5 10 -7 0 -9 7 -6 16 4 10 2 13 -6 8 -8 -5 -9 -2 -5 9 3 10 2
17 -4 17 -6 0 -7 5 -4 10 3 6 1 10 -5 10 -7 0 -9 7 -6 16 4 10 2 13 -6 8 -8
-5 -9 -2 -5 9 3 10 2 17 -4 17 -6 0 -7 5 -4 10 3 6 1 10 -5 10 -7 0 -10 7 -6
15 3 8 1 15 -5 15 -6 0 -7 5 -4 10 3 6 1 10 -5 10 -7 0 -10 7 -6 15 3 8 1 15
-5 15 -6 0 -7 5 -4 10 3 6 1 10 -5 10 -7 0 -10 7 -6 15 3 8 1 15 -5 15 -6 0
-7 5 -4 10 3 6 1 10 -5 10 -7 0 -10 7 -6 15 3 8 1 15 -5 15 -6 0 -8 7 -5 16 4
10 2 13 -6 8 -8 -5 -9 -2 -5 9 4 10 2 17 -4 17 -6 0 -9 7 -5 15 3 8 1 15 -5
15 -6 0 -9 7 -5 15 3 8 1 15 -5 15 -6 0 -7 5 -4 10 3 6 1 10 -5 10 -7 0 -10 7
-6 15 3 8 1 15 -5 15 -6 0 -9 7 -5 15 3 8 1 15 -5 15 -6 0 -9 7 -5 15 3 8 1
15 -5 15 -6 0 -9 7 -5 15 3 8 1 15 -5 15 -6 0 -9 7 -5 15 3 8 1 15 -5 15 -6 0
-9 7 -5 15 3 8 1 15 -5 15 -6 0 -9 7 -5 15 3 8 1 15 -5 15 -6 0 -9 7 -5 15 3
8 1 15 -5 15 -6 0 -9 7 -5 15 3 8 1 15 -5 15 -6 0 -8 9 -4 21 5 16 4 19 -5 14
-9 -5 -10 -2 -5 14 4 13 2 21 -5 21 -7 0 -10 7 -6 15 3 8 1 15 -5 15 -6 0 -8
9 -4 20 4 12 2 20 -5 20 -7 0 -10 7 -6 15 3 8 1 15 -5 15 -6 0 -8 9 -4 21 5
16 4 19 -6 14 -9 -6 -11 -2 -7 13 4 12 2 22 -4 22 -6 0 -8 9 -5 20 3 11 1 20
-5 20 -5 0 -6 9 -3 20 4 12 2 20 -5 20 -7 0 -9 8 -5 20 4 12 2 20 -5 20 -7 0
-9 8 -5 20 4 12 2 20 -5 20 -7 0 -10 8 -7 20 3 11 1 20 -5 20 -6 0 -7 11 -4
25 4 15 2 25 -4 25 -7 0 -9 8 -5 20 4 12 2 20 -5 20 -8 0 -10 9 -6 25 4 16 2
25 -5 25 -7 0 -9 9 -5 25 4 15 2 25 -4 25 -7 0 -9 8 -5 20 4 12 2 20 -6 20 -7
0 -9 10 -6 30 4 19 2 30 -4 30 -7 0 -9 10 -5 25 4 15 2 25 -5 25 -7 0 -8 11
-4 30 4 20 3 30 -5 30 -9 0 -10 11 -6 35 5 23 3 35 -4 35 -8 0 -10 13 -5 40 5
27 3 40 -5 40 -8 0 -9 14 -5 44 5 29 3 46 -5 51 -8 5 -9 26 -5 70 5 42 3 65
-4 69 -8 5 -11 -773 -11 -2863z"/>
</g>
</svg>
